<svg
  viewBox="0 0 1502 1024"
  version="1.1"
  xmlns="http://www.w3.org/2000/svg"
  width="48"
  height="48"
>
  <path
    d="M307.429945 716.74561c-1.37883-7.731299-1.920514-8.814666-1.575807-9.307105 31.762344-46.141576-1.132611-76.426602-25.409875-110.35568-43.974842-61.407199-86.915562-123.553056-128.034255-186.733037-29.004683-44.31955-58.30483-89.180783-80.612337-136.996653A1011.125909 1011.125909 0 0 1 16.004282 118.037735C6.155493 82.77907 5.663054 44.959721 0 0.196976c37.32691 11.670815 67.611936 18.318747 95.484008 30.482001a658.687 658.687 0 0 1 172.747757 107.745751c70.271109 61.948882 138.572459 126.212229 206.085907 191.164992 30.33427 29.201659 56.384316 62.835273 85.044292 93.908201 18.712699 20.190017 39.986083 32.796467 68.941522 19.352871 5.416834-2.511441 13.345109 0.393952 25.262143 1.13261-12.507962 15.659574-21.568848 28.70922-32.353271 40.232303-26.394754 28.21678-39.690619 63.081493-44.31955 99.669743a84.601096 84.601096 0 0 0 90.608858 94.646861c-9.848789-22.209019-18.466479-44.31955-29.004684-66.036129-7.632811-15.61033-1.181855-21.125652 12.557206-26.640974 25.705339-10.24274 49.588652-27.822829 79.578214-14.773183 13.640573 5.958517 27.527365 11.375351 42.44828 17.4816 18.515723-29.989562 62.490565-42.349792 103.756991-24.621972s42.645256 21.913555 25.015924 64.017127c-8.420714 20.288505-14.773183 41.463401-22.898434 64.017128 73.865917-8.666934 86.226147-41.561889 89.820954-95.188544 2.314465-34.470761-16.644453-65.986885-39.099692-93.268031-11.129131-13.492841-21.962799-27.182657-35.701859-44.31955 9.848789-1.723538 17.235381-5.663054 21.667335-3.447076 34.470761 17.038405 52.149337-6.795664 71.452964-27.527365 66.676301-71.551451 131.136624-145.31888 200.816805-213.86645a976.113465 976.113465 0 0 1 147.731833-119.712029c42.891476-28.167536 89.279271-54.463802 142.807438-60.42232a197.714437 197.714437 0 0 0 23.538606-5.761541c-1.181855 51.164458-5.712298 99.325036-18.860431 147.288637-28.266024 102.8706-82.335875 192.987018-137.58758 282.217045-37.57313 60.668539-81.794192 117.249832-120.696908 177.2782-10.882912 16.742941-21.322628 38.754984-1.132611 59.092733a70.615816 70.615816 0 0 1 9.011642 15.659575l-3.644052 5.613809c-11.030644-3.151612-23.489361-3.939516-32.796467-9.848789-35.70186-22.60297-74.259868-28.955439-115.674025-26.542486-35.160176 2.068246-72.388598 39.050448-76.475846 73.570453-6.500201 55.547169 27.921316 79.824434 84.945804 103.412283 13.197377 5.466078 28.167536 6.500201 41.414158 11.769303 20.485481 8.174495 43.433159 63.67242 36.539006 85.389-4.481199 14.133012-4.924394 33.978322-14.773183 40.82323s-28.856951 2.314465-43.433159 0c-53.675899-8.272983-108.336678-11.523083-157.580622-39.887595-55.596413-32.156296-113.261072-60.964003-157.580622-109.173825-12.557206-13.73906-20.386993-6.697176-29.891074 3.102368a604.912612 604.912612 0 0 1-192.297603 135.864043c-26.788706 11.769303-56.285828 17.875552-84.89656 24.96668-22.504483 5.564566-45.846112 7.879031-68.449082 13.295865-20.140773 4.924394-32.008564-0.935635-37.967082-21.125652-10.439716-35.45564-3.447076-68.941522 12.85267-100.260671 4.924394-9.307105 19.697578-14.773183 30.678977-19.35287 34.766225-14.773183 71.403719-24.621972 97.601498-55.350194 20.879432-24.277265 33.239662-82.188143 12.803425-105.726748-16.053526-18.466479-41.217181-32.550247-65.05125-40.084571-45.747624-14.526964-87.506489 4.924394-128.034255 25.311387a226.522144 226.522144 0 0 1-33.58437 10.9814z m451.813189 101.294794c-20.780945-25.114412-40.183059-49.834872-61.210223-73.078014a58.206342 58.206342 0 0 0-26.985681-15.708818c-13.788304-3.693296-28.561488-3.890272-42.891476-5.515322-24.080289-2.757661-36.83447 8.568446-36.932958 33.436638v135.07614c0 30.038806 18.614211 41.857353 45.69838 27.822828 48.06209-24.96668 86.029171-62.195102 122.321958-102.033452z m38.902716 1.674294a370.462193 370.462193 0 0 0 136.45497 92.726347 26.34551 26.34551 0 0 0 35.751103-25.557607q-3.49632-70.024889-7.632811-140.000534c0-3.397832-4.136491-6.549445-6.155493-9.848789-15.117891-25.065168-37.228422-7.780543-55.202462-7.140372-16.398233 0.541683-36.735982 6.253981-47.81587 17.235381-20.830188 20.633213-36.292787 46.781747-55.547169 72.585574z m-349.779737 169.940852a206.332127 206.332127 0 0 1 22.652215-4.678175c8.076007-0.886391 16.496721 0.640171 24.621972-0.541683 24.621972-3.594808 37.08069-22.553727 31.762344-46.535528-2.068246-9.405593-3.397832-18.909675-4.924394-28.364512-3.791784-20.436237-23.538605-29.053927-41.758865-18.269503-11.670815 6.943396-25.409875 11.917035-34.470761 21.371872a112.079217 112.079217 0 0 0-26.148535 40.183058c-6.598689 18.515723 9.750301 37.376154 28.266024 36.834471z m628.303486-29.546367c4.924394 0 9.848789 0.24622 14.773184 0 13.098889-0.738659 26.197778 2.462197 32.944198-16.10277 7.189616-19.697578-3.791784-29.546367-15.314866-38.853472a219.332528 219.332528 0 0 0-39.395156-23.390873c-18.220259-9.307105-35.20942-0.738659-40.035327 19.451358-1.674294 6.99264-2.166734 14.280744-3.841027 21.273384-6.057005 25.508363 2.265221 36.686739 28.610731 37.622373h22.258263z m-228.09795-278.474505c4.087247-11.424595 6.401713-17.284624 8.371471-23.292386s3.545564-12.212498 5.318346-18.318747a29.546367 29.546367 0 0 0-26.690218-39.395156c-23.834069-2.166734-33.535126 13.443597-43.728623 33.190419z m-155.610864 1.674294c18.220259-16.299746 33.633614-29.792586 48.702261-43.580891 14.2315-13.000401 5.36759-22.110531-6.598689-28.21678a71.994647 71.994647 0 0 0-25.705339-5.958517c-26.099291-2.215977-40.084571 17.924796-29.989562 42.300548 3.988759 9.799545 7.48508 19.59909 13.591329 35.45564z"
    fill="#17abe3"
  ></path>
</svg>
