<svg
  viewBox="0 0 1024 1024"
  version="1.1"
  xmlns="http://www.w3.org/2000/svg"
  width="48"
  height="48"
>
  <path
    d="M731.2 956.8H102.4c-8 0-12.8-6.4-12.8-12.8 0-1.6 0-3.2 1.6-4.8l161.6-369.6c11.2-24 41.6-36.8 68.8-28.8l473.6 152c14.4 4.8 25.6 14.4 32 27.2 4.8 11.2 4.8 24 0 35.2l-84.8 193.6c-1.6 4.8-6.4 8-11.2 8zM537.6 572.8c-3.2 0-129.6-40-136-43.2-6.4-3.2-8-11.2-4.8-17.6L625.6 96c0-1.6 1.6-1.6 1.6-3.2 9.6-16 27.2-25.6 48-27.2 33.6-1.6 62.4 19.2 64 49.6 1.6 12.8-3.2 25.6-11.2 35.2l-3.2 3.2c-3.2 4.8-27.2 44.8-80 129.6-8 12.8-16 24-22.4 33.6-27.2 40-25.6 40-17.6 51.2l46.4 59.2c3.2 4.8 3.2 12.8 0 17.6l-105.6 123.2c0 3.2-4.8 4.8-8 4.8zM755.2 641.6c-3.2 0-105.6-33.6-112-36.8-6.4-3.2-9.6-11.2-4.8-17.6l196.8-360c0-1.6 1.6-1.6 1.6-3.2 8-12.8 24-22.4 41.6-24 28.8-1.6 54.4 17.6 56 43.2 1.6 11.2-3.2 22.4-9.6 32l-1.6 3.2c-3.2 4.8-22.4 36.8-67.2 107.2-6.4 11.2-12.8 20.8-19.2 27.2-9.6 14.4-16 24-17.6 30.4 0 1.6-1.6 3.2 3.2 9.6l38.4 49.6c3.2 4.8 3.2 11.2 0 16l-96 118.4c-3.2 3.2-6.4 4.8-9.6 4.8z"
    fill="#2c2c2c"
  ></path>
</svg>
